<?xml version="1.0" encoding="UTF-8"?>
<svg width="62px" height="50px" viewBox="0 0 62 50" version="1.1" xmlns="http://www.w3.org/2000/svg" xmlns:xlink="http://www.w3.org/1999/xlink">
    <!-- Generator: Sketch 49.3 (51167) - http://www.bohemiancoding.com/sketch -->
    <title>behance</title>
    <desc>Created with Sketch.</desc>
    <defs></defs>
    <g id="Page-1" stroke="none" stroke-width="1" fill="none" fill-rule="evenodd">
        <g id="behance" fill-rule="nonzero">
            <rect id="Rectangle" fill="#81BEF4" x="0" y="0" width="62" height="50"></rect>
            <path d="M19.938,18 C20.64,18 21.278,18.06 21.858,18.188 C22.435,18.318 22.928,18.518 23.343,18.798 C23.753,19.078 24.076,19.448 24.303,19.918 C24.528,20.388 24.643,20.968 24.643,21.648 C24.643,22.388 24.473,23.008 24.136,23.508 C23.798,24.008 23.299,24.408 22.634,24.728 C23.54,24.988 24.21,25.448 24.656,26.098 C25.104,26.758 25.321,27.548 25.321,28.458 C25.321,29.208 25.191,29.848 24.911,30.388 C24.631,30.938 24.241,31.388 23.751,31.738 C23.271,32.086 22.701,32.338 22.081,32.505 C21.471,32.67 20.829,32.759 20.171,32.759 L13,32.759 L13,18.007 L19.938,18.007 L19.938,18 Z M29.94,30.162 C30.38,30.59 31.013,30.805 31.834,30.805 C32.424,30.805 32.934,30.657 33.364,30.358 C33.788,30.068 34.044,29.748 34.144,29.418 L36.732,29.418 C36.329,30.698 35.684,31.618 34.832,32.168 C33.982,32.728 32.948,32.998 31.752,32.998 C30.915,32.998 30.168,32.868 29.48,32.598 C28.807,32.328 28.24,31.948 27.76,31.458 C27.296,30.968 26.937,30.378 26.683,29.688 C26.43,28.998 26.31,28.238 26.31,27.418 C26.31,26.615 26.445,25.878 26.713,25.188 C26.983,24.488 27.357,23.908 27.833,23.398 C28.328,22.888 28.896,22.503 29.569,22.204 C30.242,21.905 30.969,21.771 31.789,21.771 C32.699,21.771 33.479,21.935 34.169,22.294 C34.839,22.634 35.389,23.114 35.829,23.694 C36.269,24.28 36.579,24.954 36.769,25.714 C36.959,26.464 37.019,27.254 36.979,28.094 L29.289,28.094 C29.289,28.934 29.569,29.726 29.999,30.159 L29.919,30.189 L29.94,30.162 Z M19.7,30.212 C20.017,30.212 20.32,30.182 20.606,30.119 C20.896,30.059 21.154,29.954 21.369,29.819 C21.579,29.684 21.759,29.491 21.889,29.236 C22.019,28.996 22.079,28.666 22.079,28.276 C22.079,27.526 21.859,26.986 21.439,26.656 C21.009,26.336 20.449,26.176 19.749,26.176 L16.24,26.176 L16.24,30.226 L19.7,30.226 L19.7,30.196 L19.7,30.212 Z M33.307,24.562 C32.955,24.177 32.367,23.97 31.65,23.97 C31.182,23.97 30.795,24.044 30.484,24.208 C30.182,24.358 29.934,24.558 29.744,24.798 C29.554,25.038 29.427,25.278 29.352,25.548 C29.277,25.808 29.232,26.048 29.217,26.258 L33.979,26.258 C33.909,25.508 33.649,24.958 33.299,24.568 L33.299,24.578 L33.307,24.562 Z M19.52,23.947 C20.094,23.947 20.57,23.813 20.945,23.535 C21.319,23.265 21.499,22.815 21.499,22.197 C21.499,21.853 21.429,21.572 21.319,21.351 C21.189,21.131 21.019,20.961 20.819,20.839 C20.609,20.715 20.369,20.629 20.099,20.582 C19.829,20.529 19.539,20.508 19.259,20.508 L16.23,20.508 L16.23,23.948 L19.52,23.948 L19.52,23.947 Z M28.618,18.989 L34.586,18.989 L34.586,20.443 L28.618,20.443 L28.618,18.977 L28.618,18.987 L28.618,18.989 Z" id="Shape" fill-opacity="0.1" fill="#000000"></path>
        </g>
    </g>
</svg>