<?xml version="1.0" encoding="UTF-8"?>
<svg width="63px" height="50px" viewBox="0 0 63 50" version="1.1" xmlns="http://www.w3.org/2000/svg" xmlns:xlink="http://www.w3.org/1999/xlink">
    <!-- Generator: Sketch 49.3 (51167) - http://www.bohemiancoding.com/sketch -->
    <title>github</title>
    <desc>Created with Sketch.</desc>
    <defs></defs>
    <g id="Page-1" stroke="none" stroke-width="1" fill="none" fill-rule="evenodd">
        <g id="github" fill-rule="nonzero">
            <rect id="Rectangle" fill="#81BEF4" x="0" y="0" width="63" height="50"></rect>
            <path d="M25.5,13 C18.59375,13 13,18.596875 13,25.5 C13,31.0239583 16.58125,35.7083333 21.546875,37.359375 C22.171875,37.4770833 22.4010417,37.090625 22.4010417,36.7583333 C22.4010417,36.4614583 22.390625,35.675 22.3854167,34.6333333 C18.9083333,35.3875 18.175,32.95625 18.175,32.95625 C17.60625,31.5135417 16.784375,31.128125 16.784375,31.128125 C15.6520833,30.353125 16.871875,30.36875 16.871875,30.36875 C18.1270833,30.45625 18.7864583,31.65625 18.7864583,31.65625 C19.9010417,33.5677083 21.7125,33.015625 22.4270833,32.6958333 C22.5395833,31.8875 22.8614583,31.3364583 23.21875,31.0239583 C20.4427083,30.7114583 17.525,29.6364583 17.525,24.846875 C17.525,23.4822917 18.009375,22.3677083 18.8114583,21.4927083 C18.6708333,21.1770833 18.2489583,19.90625 18.9208333,18.184375 C18.9208333,18.184375 19.9677083,17.8489583 22.3583333,19.465625 C23.3583333,19.1875 24.4208333,19.05 25.4833333,19.04375 C26.5458333,19.05 27.6083333,19.1875 28.6083333,19.465625 C30.9833333,17.8489583 32.0302083,18.184375 32.0302083,18.184375 C32.7020833,19.90625 32.2802083,21.1770833 32.1552083,21.4927083 C32.9520833,22.3677083 33.4364583,23.4822917 33.4364583,24.846875 C33.4364583,29.6489583 30.5145833,30.70625 27.7333333,31.0135417 C28.1708333,31.3885417 28.5770833,32.1552083 28.5770833,33.3260417 C28.5770833,34.9989583 28.5614583,36.3427083 28.5614583,36.7489583 C28.5614583,37.0770833 28.7802083,37.4677083 29.4208333,37.3427083 C34.421875,35.703125 38,31.015625 38,25.5 C38,18.596875 32.403125,13 25.5,13" id="Shape" fill-opacity="0.1" fill="#000000"></path>
        </g>
    </g>
</svg>