<?xml version="1.0" encoding="UTF-8"?>
<svg width="364px" height="42px" viewBox="0 0 364 42" version="1.1" xmlns="http://www.w3.org/2000/svg" xmlns:xlink="http://www.w3.org/1999/xlink">
    <!-- Generator: Sketch 47.1 (45422) - http://www.bohemiancoding.com/sketch -->
    <title>highlight</title>
    <desc>Created with Sketch.</desc>
    <defs></defs>
    <g id="Page-1" stroke="none" stroke-width="1" fill="none" fill-rule="evenodd">
        <g id="highlight" fill-rule="nonzero" fill="#F8FF44">
            <path d="M53.8373668,41.5826278 C46.7927925,41.4104808 42.437186,41.2851028 41.8480015,41.2375105 C41.5192158,41.2109526 40.2163156,41.1559224 38.9526699,41.1152251 C37.6890241,41.0745278 36.3416056,41.0100139 35.9584089,40.9718645 C35.5752123,40.9337151 34.6773732,40.8826008 33.96321,40.8582768 C31.6076791,40.7780514 29.4433404,40.6234008 27.7289796,40.4128152 C27.0645312,40.3311987 26.4312044,40.2891086 26.3215966,40.3192825 C26.350417,40.2095006 25.685258,40.1655758 24.1995428,40.1400063 C22.9923911,40.1192327 21.8715276,40.0762589 21.7087346,40.044513 C21.5459416,40.012767 21.361931,39.8381874 21.2998271,39.6565603 C21.1714118,39.2810082 20.9611037,39.2231977 19.0514486,39.0385134 C18.3396881,38.9696791 17.2217724,38.8245477 16.5671903,38.715999 C15.9126119,38.6074503 15.1406312,38.4942902 14.8516752,38.4645297 C14.0266636,38.3795598 14.0412787,38.1709153 14.9000326,37.7740804 C15.8030831,37.3567806 16.5150203,37.1830048 17.9639363,37.0262091 C18.9034099,36.9245465 20.1889802,36.5030452 20.2003204,36.292967 C20.204118,36.2224009 19.3430855,36.0852681 18.1168329,35.961141 C17.7884082,35.9278975 16.711657,35.867461 15.7240516,35.8268364 C14.7364425,35.7862136 13.4230595,35.6846575 12.8054118,35.6011567 C12.1189674,35.5083551 10.7387353,35.4379931 9.254825,35.4201559 C6.6195173,35.3884774 5.4926115,35.2410909 5.3262841,34.9063462 C5.2699405,34.7929536 4.7780949,34.6135284 4.0757871,34.4501624 C3.439095,34.3020591 2.966275,34.1461594 3.0250814,34.1037161 C2.2203512,34.1645111 1.2541365,33.9479354 0.9120253,33.6275874 C0.5391574,33.2784371 0.7147569,32.9564727 1.2743803,32.9632009 C1.5757631,32.8570351 2.1856163,32.820243 2.9280697,32.8141962 C3.6705193,32.8081635 4.3101817,32.7627146 4.3495452,32.7132309 C4.9969946,32.6301773 5.2221021,32.5903919 5.2928878,32.5393007 C6.5503521,32.603552 6.7930827,32.5542688 6.7970269,32.4811814 C7.210122,32.2434471 6.6895097,32.1840113 5.7688136,32.2254006 C5.2950761,32.2466941 4.5050776,32.2109577 4.0132583,32.1459026 C3.521439,32.0808849 2.9847065,32.0137113 2.8205186,31.99663 C2.6563269,31.9795434 2.3648705,31.9317418 2.1728285,31.890395 C0.9132737,31.9159504 0.7458559,31.7854251 1.1409191,31.6385585 C1.8514689,31.4409856 2.6596057,31.2700398 2.6540221,31.3734856 C2.8459513,31.2905029 4.4518322,31.2928556 4.8540432,31.4007425 C5.6908575,31.2648961 6.4970429,31.2248446 6.3371902,31.3402208 C7.236284,31.1913279 7.4262543,31.1814893 7.7924933,31.2522861 C8.043244,31.1798907 8.1446436,31.159802 8.6689155,31.1717697 C9.0536951,31.1805525 10.0461245,31.1477792 10.8743134,31.0989396 C11.7024948,31.0500982 12.6210928,31.0073285 12.9156287,31.0038934 C13.7913778,30.9936911 13.5566448,30.6755167 12.3880443,30.2887865 C11.7203924,30.0678371 11.4046614,29.9033835 11.4809255,29.8162986 C12.6683861,29.7479398 13.1858298,29.7169143 13.5959969,29.7181935 C14.1732472,29.7200033 14.4232834,29.6649465 14.7025574,29.474572 C15.1562014,29.1653348 15.2215953,28.9901785 14.9711492,28.7551518 C14.86241,28.6531113 14.8547772,28.594717 14.9541916,28.6253859 C15.0535985,28.6560548 15.2624364,28.5255739 15.4182809,28.3354265 C15.5741216,28.1452809 15.8031357,27.9597059 15.9271932,27.9230345 C14.7621083,27.8346313 14.6327492,27.8083804 14.8579845,27.7434673 C14.1513226,27.6412175 13.7034276,27.5966823 13.5149539,27.5474026 C13.3264764,27.4981247 12.3454811,27.2908091 11.3349585,27.086705 C9.30839,26.6773808 4.6004613,24.5824451 5.7678623,24.6059459 C6.935266,24.6294466 8.0617469,24.6946312 8.2711601,24.7508005 C8.4950644,24.8108608 8.9537618,24.8269946 9.3847255,24.7899737 C10.6499091,24.794342 16.7399096,24.8380681 17.4184543,24.8003835 C18.5687924,24.7364995 20.0123655,24.6974399 22.0016612,24.6763717 C23.0333412,24.665442 23.9773682,24.6116982 24.0995005,24.556927 C24.3165503,24.4595938 23.9501796,24.4056033 23.2919164,24.4379223 C23.0503327,24.2818825 22.9231356,24.2547178 22.7646404,24.2812544 C22.0448372,24.0709544 21.9639596,24.066437 21.826479,24.1631724 C21.0305923,24.1212543 20.8616931,24.082514 20.7776834,23.9707751 C20.7082926,23.8784845 20.7491074,23.7889173 20.8683671,23.7717367 C21.1767472,23.7273133 21.6923147,23.4839828 21.6979133,23.3802176 C21.7057341,23.235505 20.9235601,22.8943195 20.7153764,22.9516279 C20.7350149,22.7615852 20.6555248,22.7404426 20.3115148,22.7785033 C20.1895066,22.4511433 19.769477,22.3730045 19.4262529,22.5710617 C19.3587797,22.445013 18.4370345,22.1809728 18.0961529,22.2748142 C18.1204613,22.1652967 18.0920132,22.1158893 17.9755208,22.1144894 C17.8590248,22.1130699 17.7602721,22.1756498 17.7560684,22.2535136 C17.0729216,22.3491861 17.0221804,22.4566259 17.0542757,22.4851851 C16.2578363,22.5571795 16.2345205,22.4822859 16.6623145,22.3424207 C16.9108806,22.2611538 16.7345629,22.2420037 15.8509516,22.2543067 C15.1840517,22.2635864 14.7713804,22.2343866 14.84264,22.18296 C14.326016,22.1664039 14.1598766,22.1386164 14.1633546,22.0741061 C13.7646931,22.0745461 13.7425016,22.0408201 13.8570612,21.9152025 C13.9467448,21.8168615 14.0438167,21.6787847 14.0727724,21.6083677 C14.1628583,21.389276 14.6754478,21.3311798 15.2967201,21.4696487 C15.6230129,21.5423723 15.7772932,21.603971 15.6395607,21.6065331 C15.1480798,21.6156885 15.388904,21.8000747 15.9003618,21.8062227 C16.27661,21.8107472 16.3924856,21.7735417 16.3165825,21.6725871 C16.2587312,21.5956424 16.3032721,21.5073971 16.415542,21.4764869 C16.5459688,21.4405802 16.528842,21.3646947 16.3681096,21.2663288 C16.6049632,21.2052944 16.8759013,21.1912507 17.0337348,21.1411123 C16.6657474,21.1408869 16.6330617,21.1085342 16.7571079,20.893204 C16.8380381,20.7527178 16.978241,20.6158955 17.068669,20.5891531 C17.3629943,20.5021144 17.0541554,20.1289896 16.7323784,20.1828629 C16.5236833,20.2178026 16.4565861,20.1795982 16.5088012,20.0555882 C16.5633852,19.925966 16.4757132,19.8826977 16.1822828,19.8944312 C16.1749847,19.8337711 16.2441912,19.7749989 16.1890358,19.7303839 C16.1338804,19.6857689 16.2729214,19.5916365 16.49801,19.5212018 C16.7230987,19.4507652 16.8493482,19.3643794 16.7785662,19.3292304 C17.3480295,19.2710756 17.3647652,19.2552665 17.1267234,19.1801529 C16.2873034,19.182204 16.6799527,18.78662 16.9500899,18.7022907 C17.1708996,18.6333588 17.4469137,18.2037276 17.2324621,18.2627659 C17.1311188,18.2906634 16.9474353,18.232844 16.8242728,18.1342793 C16.624989,17.9747991 16.6600585,17.9576983 17.1428312,17.9789457 C17.617708,17.8190289 17.665272,17.7715112 17.7474618,17.7786492 C18.1583508,17.8143465 18.3988254,17.7614029 18.4057175,17.6337166 C18.4099287,17.5558545 18.5086738,17.4932924 18.6251699,17.4946941 C18.6689664,17.3613388 18.7344129,17.3017327 18.8740217,17.2771035 C18.5859644,17.214261 18.4304019,17.1764185 18.4325526,17.1365871 C17.3515752,17.0751818 17.0885594,17.0408915 17.152062,16.9950593 C16.6109153,16.9038314 16.4782061,16.8597398 16.5489881,16.8086486 C16.3104349,16.7113561 16.2684019,16.644926 16.3456248,16.5567446 C15.8698043,16.4143049 16.0544654,16.330302 16.2759332,16.3057988 C16.518314,16.2789801 16.682893,16.1818704 16.6893715,16.0618508 C16.6984331,15.8939302 16.6128517,15.870087 16.1471569,15.9107914 C16.2672175,15.7678886 16.2624084,15.7439886 15.8751435,15.5226719 C15.6459076,15.3916694 15.3245817,15.2828741 15.1610781,15.2809099 C14.55923,15.2736707 15.1029448,15.1808069 15.9122096,15.1526149 C16.5610051,15.2580337 16.5969018,15.2981686 16.7069006,15.2994905 C17.0717484,15.1829184 17.4160328,15.1598719 17.7783276,15.1739226 C18.8193889,15.0654893 18.9587571,15.0723487 19.0353032,15.1342686 C19.7456988,15.0960322 20.1248346,15.0617952 20.3803604,15.0692756 C21.0903086,15.0900599 23.5465098,15.0162007 23.718323,14.968903 C23.852164,14.9320577 26.0424053,14.8270097 26.7127494,14.8252851 C27.0638356,14.8243979 27.0495777,14.3804746 26.6942502,14.2494366 C26.5326078,14.1898234 26.3867048,14.023056 26.3700292,13.8788402 C26.3511916,13.7159622 26.2456747,13.6323745 26.0914808,13.6581924 C26.0264855,13.4905202 25.857951,13.4225731 25.4679638,13.3772111 C24.8121935,13.3009353 24.3540337,13.0893489 24.5454591,12.9511853 C23.9778044,12.93923 23.8644065,12.9056245 23.8706143,12.7906404 C23.8753895,12.7018629 23.7005194,12.6048508 23.4819844,12.5750566 C23.0382368,12.5145597 22.9728428,12.3983726 23.32758,12.3007164 C23.3268656,12.4059489 23.3330847,12.4500547 23.4241782,12.4437151 C23.8526941,12.4138694 24.0878859,12.4734472 24.0805125,12.6099785 C24.6918584,12.4403829 24.6506188,12.3740664 24.5588823,12.3804716 C24.0049929,12.4192527 23.6947252,12.3417704 23.7041553,12.1670293 C23.7099081,12.0601485 23.8032313,12.0000314 23.9115005,12.0334345 C24.0197735,12.0668376 24.1130741,12.0067205 24.1188457,11.8998397 C24.1245985,11.7929571 24.2547096,11.7070166 24.4079408,11.7088584 C24.5611796,11.7107036 24.7437088,11.6469403 24.8135659,11.5671674 C24.6531342,11.5012589 24.5336828,11.4701464 24.4896795,11.4040622 C24.4773467,11.5408792 24.4154044,11.6145059 24.3157005,11.6133083 C23.6388028,11.6970397 23.6212511,11.7633101 23.7877364,11.8146764 C23.2342117,11.847455 22.9887552,11.5973572 23.3427366,11.6016138 C23.4206588,11.602501 23.5452878,11.4765516 23.6196944,11.3216189 C23.7271515,11.0978732 23.8588718,11.0411699 24.2599924,11.0459924 C24.7727248,10.9057741 24.95519,10.8654671 25.1751952,10.8681126 C25.5988156,10.8732049 25.7055394,11.0120197 25.3591494,11.1073764 C24.9893496,11.2091792 25.3300846,11.319905 25.9588243,11.3022524 C26.7774252,11.2792715 26.9779535,11.1755489 26.2437721,11.1548658 C25.8625232,11.1441253 26.0040007,11.0978851 26.6682047,11.016145 L26.2244307,10.8952241 C25.7131196,10.7559 25.645605,10.5904439 26.1022984,10.5959318 C26.2146171,10.7436679 26.252014,10.7866151 26.3685064,10.788015 C26.4849987,10.7894344 26.5848981,10.7056196 26.5905043,10.6018013 C26.5967083,10.4874541 26.7340272,10.4146454 26.9389247,10.4171081 C27.2331823,10.4206567 27.227625,10.4030733 26.8961848,10.2819572 C25.5822302,10.2523546 25.5808052,10.2388965 25.9072935,10.0924787 C26.0983804,10.0067885 26.3832944,9.9382238 26.5404399,9.9401117 C26.7985827,9.9432167 26.9203277,9.8300424 26.8664018,9.637097 C27.3298406,9.5718343 27.4205092,9.5333655 27.3598304,9.4842828 C27.2162209,9.3681188 27.6017864,9.2626539 27.8688479,9.3450475 C28.0099569,9.3885819 27.9988875,9.449973 27.8338799,9.5390841 C27.6603296,9.6327996 27.6555807,9.6701949 27.8169599,9.6721342 C28.0515012,9.6749554 28.1211965,9.5614812 28.0696018,9.2607908 C28.0292758,9.0257659 28.413544,8.9269954 29.3321572,8.9362661 C29.7739647,8.9407197 30.0640036,8.9008527 30.0378603,8.8392522 C30.0094723,8.7723963 30.4264262,8.7384804 31.1936993,8.7452298 C31.8538237,8.7510318 32.508906,8.7154463 32.6494322,8.6661365 C33.8963008,8.6825062 34.1408024,8.6548288 34.3326977,8.5423252 C34.3206056,8.4915214 33.9944744,8.3388563 33.6958139,8.1142199 C33.3971496,7.8895852 33.1503319,7.7442214 33.1473201,7.7911945 C32.5361396,7.604365 32.3655296,7.4788557 32.3719442,7.4220548 C32.6857651,7.5785843 32.9220247,7.6557969 33.1035612,7.6579793 C33.0947064,7.4936517 33.050158,7.3833056 33.1159655,7.3081583 C33.5757796,7.0024857 33.1214513,6.6930799 32.8988292,6.7834082 C33.3215209,6.7028865 33.4062788,6.685862 33.40908,6.6339475 C33.411712,6.5820383 33.3294583,6.5134311 33.2259154,6.4814882 C32.9729727,6.4034487 33.2240354,6.1303418 33.6846016,5.9821745 C33.8898825,5.9161596 34.0024456,5.8173394 33.9347356,5.7625701 C34.2154196,5.529197 34.2064294,5.2438153 34.4959381,5.2021102 C34.6947707,5.1734693 34.7492644,5.0108822 34.6872695,4.6312936 C34.6711391,4.5325746 34.4919788,4.4630909 34.2436271,4.4592424 C34.360439,4.2896912 34.5640731,4.007136 34.3631199,3.9451364 C34.042719,4.0743433 33.9482565,4.1041145 33.88566,4.075887 C33.8230636,4.0476577 33.8547528,3.9647336 33.9560548,3.8916055 C34.9362717,4.1164033 34.9462921,4.1164353 34.9711908,3.9410643 C35.4299146,3.7849517 35.4458495,3.7282572 35.5239748,3.7369638 C36.5537786,3.5923895 36.8926636,3.5708583 36.9918487,3.6014598 C37.4676203,3.5336954 37.6052626,3.5193128 37.6726982,3.4706364 C38.6936886,3.3950083 39.0380106,3.3471356 39.960128,3.1342381 C40.436317,3.0242983 40.9506587,2.9358455 41.1031079,2.9376765 C41.5611511,2.705164 43.4297056,2.6681111 43.4232196,2.7882655 C44.5737383,2.7211629 45.8452612,2.7512091 46.7655438,2.8582514 C47.2429773,2.9137855 47.3900648,2.8860903 47.616616,2.6980029 C47.7672529,2.5729442 47.839287,2.4291879 47.776683,2.3785492 C47.6152775,2.2479866 46.2657608,2.1426157 44.0613932,2.0884585 C43.0170832,2.062802 41.9665468,1.9883218 41.7268693,1.9229474 C41.4871919,1.857573 41.2196453,1.8088327 41.1323193,1.8146365 C39.7009174,1.7902929 39.4980278,1.7383696 39.42696,1.5953407 C39.3502673,1.44099 39.4322992,1.4059581 39.8639924,1.4087082 C40.3716149,1.4119375 40.3785747,1.4057451 40.0192202,1.2705055 C39.6827641,1.1438855 39.8365932,1.133575 41.4745395,1.1729522 C42.4818886,1.1971698 43.3050842,1.243002 43.3038697,1.2748011 C45.211596,1.250738 47.2826416,1.1949714 48.048046,1.1960218 C48.7392618,1.0797691 48.8602774,1.0413535 49.059689,1.0360607 C49.848176,1.0151292 50.0375146,1.0000636 50.386593,0.9304734 C50.5860572,0.8907093 50.9301912,0.7008387 51.1513432,0.5085409 C51.55954,0.1535975 52.2137236,-0.0476979 52.3374577,0.1435708 C53.2758672,0.2179126 56.5029023,0.2575365 56.7157972,0.1620875 C57.3163858,0.3028169 58.5241617,0.3015624 58.8938976,0.1997738 C60.176569,0.2914276 62.144809,0.3771214 64.173438,0.427824 C66.202063,0.4785285 69.030737,0.5551005 70.459376,0.5979838 C78.159231,0.829116 80.510724,0.8816515 85.30137,0.9295738 C89.064826,0.9672193 90.550413,1.0121129 90.546311,1.0880728 C91.078167,0.9942012 92.2836,0.9820384 95.752117,1.0447371 C96.796796,1.0636211 97.741721,1.0766037 97.851961,1.0735856 C97.962193,1.0705693 99.044595,1.0394852 100.257285,1.0045118 C101.469979,0.9695401 102.610929,0.9646856 102.792725,0.993724 C103.292666,0.9242597 104.090207,0.8884063 105.004864,0.8879716 C105.919526,0.8876167 107.184867,0.850484 107.816739,0.8056277 C108.448611,0.7607749 110.116979,0.7189172 111.524223,0.7126095 C112.931475,0.7062752 114.713737,0.6925829 115.484815,0.6821517 C116.25589,0.6717188 117.052923,0.7061688 117.256001,0.7587025 C117.458642,0.7194654 118.252021,0.6957766 119.348915,0.7135534 C120.413923,0.7308175 121.602922,0.697975 121.991134,0.6405761 C122.99352,0.5902283 123.554764,0.5488443 124.448099,0.5465164 C126.432984,0.5413532 132.474469,0.6041797 133.699071,0.6427248 C134.248501,0.6600243 135.509477,0.6574693 136.501241,0.6370825 C138.89391,0.5878649 142.607105,0.6037876 142.603875,0.6632536 C142.59989,0.736678 143.561175,0.7147653 145.167357,0.6048202 C145.973102,0.5496676 146.874348,0.5376662 147.170129,0.5781577 C147.86283,0.6729803 149.205973,0.7126148 149.209786,0.638344 C155.357404,0.657849 165.917545,0.6076662 166.274064,0.5095185 C167.351026,0.5806825 167.777843,0.5986084 167.969606,0.6393962 C168.410985,0.7331986 169.209342,0.7714225 169.113853,0.6941815 C169.074234,0.6621286 170.589619,0.6634026 172.481388,0.6970204 C174.373153,0.7306329 175.920555,0.7654076 175.920077,0.7743005 C175.920077,0.7831898 176.481306,0.8056259 177.168333,0.8241532 C177.855323,0.8426806 178.418864,0.8304698 178.420628,0.7969921 C179.504252,0.8648612 179.858606,0.8728509 179.908358,0.836946 C179.958096,0.8010375 180.814139,0.7838782 181.810629,0.7988143 C182.890877,0.814996 183.625727,0.7878668 183.630593,0.731623 C183.955389,0.8712061 185.466751,0.882732 185.674487,0.7561972 C185.824391,0.809941 186.160058,0.8515148 186.572939,0.8504059 C186.985844,0.8493413 187.530089,0.8877196 187.782385,0.9357874 C188.973263,0.8494478 189.81295,0.8232199 194.132874,0.7623363 C195.234415,0.7468111 197.037802,0.7067188 198.140339,0.6732394 C199.242872,0.6397599 201.720269,0.6258139 203.645671,0.6422475 C205.571076,0.6586954 207.508119,0.6445541 207.950231,0.6108706 C208.392344,0.5771765 210.824537,0.5666176 213.3551,0.5874072 C219.298344,0.6362291 223.770999,0.6136031 225.552536,0.525702 C226.332849,0.4872031 228.009719,0.404412 229.278959,0.3417221 C230.548159,0.279034 232.669291,0.1918125 233.992544,0.1478966 C235.315797,0.1039789 236.804614,0.0516492 237.301013,0.0316048 C238.927304,-0.0340606 240.581944,0.0034377 241.9195,0.1362731 C242.762951,0.2200365 245.327809,0.291188 249.073397,0.3347207 C252.284873,0.3720504 254.974559,0.4210089 255.050477,0.4435249 C255.126391,0.4660444 258.517073,0.5522084 262.58531,0.635003 C266.653544,0.7177994 270.701052,0.8141834 271.579749,0.8491923 C276.51332,1.045752 280.258833,1.1266729 288.471293,1.2141411 C289.62641,1.226437 290.885789,1.2536318 291.269906,1.2745598 C292.100686,1.3198225 295.946275,1.4480944 299.560503,1.5511001 C307.371775,1.7737191 310.286215,1.8454243 315.549941,1.9444981 C318.738816,2.0045177 321.661667,2.0804049 322.045157,2.1131356 C322.428647,2.1458663 323.461601,2.1968564 324.340573,2.2264465 C325.96725,2.2812052 327.824412,2.4071652 328.063838,2.4789697 C328.136612,2.5008008 328.809502,2.5481873 329.559133,2.5842714 C330.308783,2.6203573 331.459952,2.6967573 332.117291,2.7540462 C332.774633,2.8113386 333.581544,2.8789079 333.910378,2.9042024 C334.239231,2.9294952 335.238478,3.0484804 336.130925,3.1686135 C337.023376,3.2887449 337.941068,3.3892914 338.170233,3.3920469 C338.5804,3.5189615 338.690902,3.5561847 338.82836,3.5584239 C340.178911,3.5804094 343.40651,3.7644425 343.912768,3.8483247 C344.26549,3.9067687 344.737509,4.0829452 344.961714,4.2398278 C345.404431,4.5496346 346.602931,4.8670621 347.708258,4.967291 C349.091224,5.092685 351.485178,5.2266666 351.986988,5.2067589 C352.490414,5.3442128 352.551026,5.3620499 352.627278,5.3278643 C352.703531,5.2936752 352.949022,5.3511326 353.172817,5.4555418 C353.39665,5.5599546 354.179782,5.8022614 354.913133,5.9940039 C355.981499,6.2733404 356.528128,6.3535569 357.66361,6.3976255 C359.163286,6.4558335 359.428329,6.5399073 359.260294,6.9040949 C359.153247,7.1361976 358.347103,7.317784 357.470534,7.3072463 C356.812685,7.4457223 356.449469,7.4838557 356.076402,7.4793703 C355.023113,7.4667017 353.367322,7.6391238 353.366457,7.7615529 C353.366457,7.9628855 354.877601,8.2270606 356.366486,8.2855259 C357.173043,8.3171973 359.046576,8.382797 360.529934,8.4313049 C363.525902,8.5292769 363.839561,8.558734 363.98793,8.7560336 C364.20665,9.0469298 361.406878,9.9937083 359.125461,10.4003444 C358.389366,10.5315475 358.015734,10.6657349 357.758814,10.8911467 C357.317916,11.2779922 357.509338,11.4668089 358.696144,11.8158315 C359.156669,11.9512556 359.529924,12.1270062 359.525638,12.2063906 C359.521502,12.2857732 359.649417,12.4160518 359.810232,12.4958975 C360.266207,12.7223224 360.141789,12.9495192 359.46435,13.1275356 C359.122942,13.2172518 358.44836,13.4581107 357.965275,13.6627719 C357.229894,13.9743211 356.927026,14.0386203 356.104263,14.0578272 C355.38035,14.0747186 355.030595,14.1346654 354.775968,14.2854622 C354.585862,14.3980456 354.471822,14.5237199 354.522506,14.5647384 C354.29732,14.6354375 354.094656,14.7286881 353.959559,14.8439348 C353.824538,14.9591833 353.783516,15.0244601 353.868492,14.9889988 C354.079954,14.9007305 354.617634,15.1814262 354.45791,15.2967137 C354.892302,15.3220916 354.692684,15.3827872 354.24547,15.480816 C353.79991,15.5788377 353.148602,15.6567068 352.798208,15.6538573 C352.447776,15.6510006 351.927994,15.687319 351.643098,15.7345511 C350.523483,16.048948 350.884706,16.3832083 351.874376,16.635123 C352.387428,16.7656571 352.941727,16.9749528 353.10619,17.1002244 C353.270614,17.2254959 353.75682,17.3823537 354.186626,17.4487998 C355.788498,17.6964189 356.012444,18.1886246 354.601805,18.3613164 C353.725048,18.4686496 353.29325,18.7687652 353.53953,19.0995957 C353.667708,19.2717357 353.660677,19.3499011 353.51697,19.3481765 C353.147512,19.3437407 352.781739,19.5746919 352.790425,19.8069684 C352.799073,20.0366758 352.783281,20.0403912 351.088461,20.2039293 C350.811838,20.2306238 350.309502,20.3604943 349.972154,20.4925278 C349.63477,20.6245612 349.107994,20.7904112 348.801478,20.8610855 C348.494926,20.931758 348.240862,21.0507041 348.236839,21.1254096 C348.227439,21.3006706 347.50097,21.4734599 346.636019,21.506203 C345.690342,21.5419997 345.299715,21.6533695 345.246436,21.9023938 C345.20203,22.1099684 345.970161,22.5628946 346.374812,22.5677579 C346.622107,22.5707388 347.728525,23.1268463 347.72217,23.2449763 C347.713522,23.406481 346.986602,23.508706 345.588182,23.5451148 C344.825621,23.5649676 343.749227,23.6209612 343.196243,23.6695471 C342.280533,23.7499979 339.0126,23.9722301 338.267726,24.0047053 C337.956183,24.0182787 337.802057,24.3535291 338.105666,24.3571789 C338.195958,24.3582434 338.175542,24.4374273 338.060316,24.5330998 C337.945076,24.6287688 337.912011,24.7374506 337.986861,24.7746117 C338.237615,24.8991327 338.082166,26.0971214 337.798019,26.2299746 C337.649676,26.299327 337.113654,26.3642631 336.606843,26.3742773 C335.788934,26.3904413 335.241602,26.5321784 335.420774,26.6814227 C335.455441,26.7102907 335.355301,26.7871626 335.198219,26.8522532 C334.50286,27.0181617 334.367733,27.0185343 334.178726,26.9406208 C332.292371,27.1292335 332.609181,27.4173121 333.980735,27.5509104 C335.514789,27.7003374 335.855945,27.768281 335.614921,27.8763666 C335.549509,27.9057048 334.125721,27.9269185 332.450923,27.9235083 C328.889188,27.9162513 328.477881,27.9883717 328.150186,28.6775577 C328.044195,28.9004553 327.73574,29.2396269 327.464644,29.4312682 C327.016805,29.747876 326.662489,30.1610753 326.629495,30.4051528 C326.622502,30.4570123 326.313385,30.509468 325.942615,30.5217231 C325.480199,30.5370177 325.233964,30.6004439 325.158471,30.7237265 C325.097957,30.8225732 324.969937,30.8792269 324.873974,30.8496208 C324.691674,30.9445463 324.275991,31.0954123 323.771053,31.2270199 C322.338489,31.6003931 322.125004,31.9164188 323.168957,32.1182234 C323.65726,32.2126113 323.677087,32.2838374 323.325305,32.6792405 C323.067354,32.9691519 323.715826,33.1644093 325.859173,33.4421987 C327.934039,33.7111148 328.511954,33.8882139 327.904207,34.0688794 C327.526812,34.1810742 324.816784,34.0383506 320.554674,33.6818262 C318.623779,33.5203038 317.808035,33.5841683 317.359738,33.9319612 C316.912869,34.2786275 316.451957,34.3772632 315.12182,34.410881 C314.019452,34.438743 312.981944,34.6837272 312.969239,34.919178 C312.961343,35.0635819 313.842265,35.2105178 314.862899,35.2350706 C315.630266,35.2535306 316.53094,35.5130942 316.081759,35.5863306 C315.940962,35.6092866 315.688978,35.6894144 315.521782,35.7643896 C315.227073,35.7301987 313.995106,36.0735861 313.745438,36.2556195 C313.434392,36.4824046 312.382235,36.7874847 311.967793,36.7710563 C310.937628,36.7302206 309.566732,36.7776568 309.562585,36.8542697 C309.554501,37.0006129 310.586929,37.4321923 310.80276,37.3727796 C310.783776,37.4746781 310.812416,37.5482729 310.92419,37.5827673 C311.035978,37.6172616 311.071029,37.6862255 311.002014,37.7360268 C310.933037,37.7858263 310.984944,37.8915609 311.117679,37.9709968 C311.494668,38.1968007 311.110686,38.282443 309.580888,38.3138181 C308.811171,38.3296095 307.774107,38.3796219 307.276347,38.4249662 C306.778549,38.4703122 305.106323,38.5839052 303.560263,38.6773954 C302.014163,38.7708819 300.243823,38.9223529 299.626142,39.013996 C298.994819,39.1076635 297.960526,39.1740955 297.263858,39.1657207 C296.582267,39.1575234 295.368603,39.229296 294.566776,39.3252045 C293.19021,39.4898639 292.71883,39.4921137 286.111513,39.3655434 C282.262909,39.2918209 278.350088,39.2035987 277.41631,39.1694982 C274.982831,39.0806302 271.991796,38.9425179 271.581223,38.9000641 C271.387752,38.8800587 269.048348,38.8084724 266.382455,38.7409813 C262.570646,38.6444784 260.957095,38.6428212 258.827442,38.7332275 C257.338038,38.7964533 254.601153,38.8557152 252.745424,38.8649239 C250.889732,38.8741325 249.042301,38.8965811 248.640011,38.9148121 C247.251601,38.9777327 242.489821,39.0700482 239.695558,39.0882153 C238.153977,39.0982402 235.360504,39.1281178 233.487851,39.15461 C231.615175,39.1811022 227.831529,39.2017214 225.079769,39.2004297 C222.328013,39.1991877 219.80582,39.2088222 219.474872,39.2219237 C219.143943,39.2350359 216.882529,39.2491008 214.44947,39.2531729 C212.016431,39.2572538 209.764104,39.2723957 209.44432,39.2868351 C208.829173,39.3146119 207.313882,39.3454866 201.951475,39.4395108 C197.742512,39.5133114 194.5818,39.6114733 191.972051,39.74944 C190.837242,39.809433 189.564881,39.8543851 189.144618,39.8493336 C188.72437,39.8442768 188.117427,39.8768975 187.795883,39.9218142 C187.474336,39.966729 186.64227,40.0187447 185.946854,40.0374068 C185.25142,40.0560655 183.805673,40.1450187 182.734055,40.2350773 C181.662402,40.3251377 180.244397,40.4149834 179.582889,40.4347385 C178.921381,40.4544919 177.702908,40.5038088 176.875193,40.5443341 C176.047444,40.5848575 174.829042,40.6328526 174.167628,40.6509931 C173.50621,40.6691354 171.985595,40.7376557 170.78849,40.8032643 C169.591388,40.8688729 167.876475,40.9389085 166.977564,40.9588996 C166.078653,40.978889 164.825626,41.0209135 164.19307,41.0522886 C163.560499,41.0836619 161.938281,41.1045828 160.588151,41.098779 C159.238018,41.0929771 157.456255,41.1189015 156.628683,41.1563944 C154.994967,41.2304079 151.518471,41.2776613 148.817753,41.2625655 C147.882412,41.2573313 146.710194,41.283985 146.212821,41.3217849 C145.715452,41.3595812 142.292243,41.3768434 138.605687,41.3601419 C134.919135,41.3434456 131.708565,41.3462313 131.471091,41.3663342 C131.233613,41.3864407 129.296017,41.41066 127.165319,41.4201543 C125.034621,41.4296469 122.840594,41.4453886 122.289701,41.4551277 C121.738808,41.4648687 119.711649,41.4798527 117.784905,41.4884262 C115.858161,41.4969961 113.515222,41.5225178 112.578377,41.5451313 C111.641535,41.5677467 110.785639,41.573806 110.676388,41.5585984 C110.567134,41.5433925 109.170245,41.5612066 107.572185,41.5981619 C105.974125,41.6351296 103.765347,41.6779384 102.663787,41.6932933 C101.562223,41.708641 100.345002,41.7348085 99.958847,41.7514303 C99.572695,41.7680555 98.040607,41.7943295 96.554212,41.8098246 C95.067816,41.8253143 93.80561,41.8506479 93.749308,41.8661127 C93.693006,41.8815847 92.520442,41.908116 91.143609,41.9250854 C89.766776,41.9420478 88.459353,41.9708183 88.238227,41.9890014 C87.833245,42.0223052 73.65944,41.9744698 67.528207,41.9191043 C65.712883,41.9027096 62.699251,41.8401298 60.831249,41.7800321 C58.9633824,41.7197163 55.8160744,41.6309813 53.8373668,41.5826278 Z M20.2419624,29.6081332 C20.3416813,29.6062169 20.2617776,29.5159862 20.0644264,29.407654 C19.7572382,29.2390325 19.5044835,29.2122085 18.3083184,29.2212717 C17.539812,29.2270914 16.8768488,29.2768412 16.8350602,29.3318182 C16.7256404,29.4757697 18.1040151,29.6530587 19.159026,29.6307272 C19.6549211,29.6202233 20.1422396,29.6100636 20.2419624,29.6081332 L20.2419624,29.6081332 Z M25.2393182,24.552853 C25.2404462,24.507641 25.1515636,24.4685159 25.041561,24.4659053 C24.9315584,24.4634523 24.8391301,24.5499865 24.8361597,24.658559 C24.8331517,24.767128 24.9221848,24.8062531 25.0339169,24.7455067 C25.1456528,24.6847568 25.2380812,24.5980614 25.2393182,24.552853 Z M15.1911356,21.6841456 C15.1922636,21.6438536 15.054828,21.5576172 14.8857784,21.4925116 C14.7095322,21.4246306 14.6283952,21.4539717 14.6955751,21.5612967 C14.8081908,21.7412055 15.1870108,21.8351126 15.1911356,21.6841456 L15.1911356,21.6841456 Z M17.5783784,18.6184709 C17.3858476,18.4803673 17.3622912,18.4957423 17.4635668,18.6934039 C17.5336456,18.8301854 17.6426556,18.9083747 17.705801,18.8671613 C17.7689502,18.8259479 17.7115914,18.7140365 17.5783784,18.6184709 L17.5783784,18.6184709 Z M19.2395464,17.505147 C19.0470118,17.3670433 19.0234516,17.3824183 19.124731,17.5800801 C19.1948136,17.7168591 19.3038198,17.795051 19.366969,17.7538375 C19.4301144,17.7126241 19.3727594,17.6007126 19.2395464,17.505147 L19.2395464,17.505147 Z M17.7439086,16.9988896 C17.6787252,16.9017955 17.5857066,16.8214702 17.5371988,16.8203952 C17.4886873,16.819415 17.4467069,16.8966557 17.4439057,16.99225 C17.4412737,17.0878444 17.5341232,17.1681664 17.6506192,17.1707477 C17.7671116,17.1733617 17.809092,17.0959903 17.7439086,16.9988896 L17.7439086,16.9988896 Z M25.9244804,12.5328297 C25.7815741,12.4755561 25.6088886,12.4780791 25.5407386,12.5384365 C25.4725848,12.5988009 25.5895096,12.6456599 25.8005659,12.6425691 C26.0338024,12.6390649 26.0824042,12.5961166 25.9244804,12.5328262 L25.9244804,12.5328297 Z M25.9003036,12.2648097 C25.6007369,12.1419388 25.1265671,11.7684237 25.1324252,11.65993 C25.1343052,11.6269154 25.2699434,11.6552813 25.4340599,11.7229535 C25.8228251,11.8832694 26.0588252,11.7758279 25.7388793,11.5841794 C25.4576088,11.4156999 24.9387551,11.5402262 24.925847,11.7793091 C24.9218238,11.8538797 24.8483308,11.8932357 24.7625389,11.8667666 C24.6767432,11.8402974 24.58903,11.900482 24.5676205,12.0005104 C24.5415637,12.1223522 24.6566235,12.183919 24.916274,12.18704 C25.1294435,12.1896127 25.3015612,12.234171 25.2987563,12.2860802 C25.2961243,12.3379893 25.496239,12.3815433 25.743835,12.3828669 C26.1301186,12.3849429 26.1523214,12.3681757 25.9003036,12.2648097 Z M24.7111848,12.1577314 C24.7123128,12.1125229 24.8048502,12.0258275 24.9165824,11.9650776 C25.0283145,11.9043278 25.1173062,11.9434563 25.1143396,12.0520253 C25.1113316,12.1605943 25.0189408,12.2472898 24.9089383,12.2446791 C24.7989395,12.2422261 24.7099478,12.2029398 24.7111848,12.1577314 Z M28.3543165,10.1349439 C28.3728157,10.0109238 28.3415701,9.9656229 28.284858,10.0342723 C28.2281535,10.1029235 28.1017536,10.13285 28.003971,10.1007749 C27.9061884,10.0686998 27.876225,10.1132254 27.9373852,10.1997073 C28.0993509,10.4287378 28.3154945,10.395163 28.3543165,10.1349439 L28.3543165,10.1349439 Z M27.3296263,10.1036237 C27.5537599,9.8674296 27.3104879,9.8123039 27.0277434,10.0352211 C26.865146,10.1634176 26.8470491,10.2422164 26.9796718,10.2445453 C27.0966492,10.2466178 27.2541292,10.1831814 27.3296263,10.1036237 L27.3296263,10.1036237 Z M33.9963996,6.9848831 C33.9975276,6.9445911 33.8647206,6.8601384 33.7013298,6.7972089 C33.5379428,6.7342794 33.4020376,6.7640235 33.3993228,6.8633413 C33.3966908,6.962645 33.5293888,7.0470977 33.6943926,7.051019 C33.8593964,7.0549438 33.9952979,7.0251575 33.9963996,6.9848831 Z M0.2383386,31.6997546 C0.2409706,31.6302284 0.3345495,31.5375201 0.4462854,31.4937395 C0.5580176,31.4499538 0.6458625,31.5083877 0.6414933,31.6235736 C0.6371317,31.7387644 0.5435491,31.8314702 0.4335465,31.8295887 C0.323544,31.8278208 0.2357029,31.7692833 0.2383386,31.6997546 Z M8.8110961,24.0323634 C8.9302768,23.9268045 9.144845,23.879921 9.2879092,23.9281712 C9.4364292,23.9782611 9.3434595,24.0606007 9.0712129,24.120096 C8.736321,24.1932755 8.6588988,24.1671617 8.8110961,24.0323634 Z M11.6565964,24.0427459 C11.4512403,23.9703715 11.4377569,23.9353533 11.6122472,23.9275592 C12.052062,23.9079216 12.1591919,23.892962 12.4044116,23.8169418 C12.5364176,23.7760174 12.706866,23.7977719 12.7831827,23.8652762 C12.8698432,23.9419328 12.8366123,23.9592285 12.6946723,23.9113404 C12.5600004,23.8659068 12.4641655,23.9002226 12.459458,23.995566 C12.4505092,24.1771045 12.0968022,24.1978888 11.6565964,24.0427459 Z M10.6382305,23.8503528 C10.7934508,23.7128701 10.9396472,23.7060929 11.0664908,23.8304836 C11.1933344,23.9548779 11.1128854,24.026137 10.8308177,24.0392149 C10.5082699,24.0541781 10.4607322,24.0075364 10.6382305,23.8503458 L10.6382305,23.8503528 Z M15.7461228,22.4531841 C15.7504844,22.3388174 15.8426496,22.2838657 15.9509225,22.3310742 C16.0591917,22.3782803 16.1456191,22.4733844 16.1429796,22.5424132 C16.1403476,22.6114419 16.0481862,22.6663911 15.9381874,22.664523 C15.8281811,22.6627677 15.7417575,22.5675508 15.7461228,22.4531841 Z M16.0537435,20.837787 C16.3957531,20.5459025 16.4303564,20.5377123 16.3828074,20.7599002 C16.3596458,20.868023 16.2214696,20.9764564 16.0757019,21.0008602 C15.8641192,21.0362843 15.8596899,21.0033975 16.0537435,20.837787 L16.0537435,20.837787 Z M17.4313097,17.5265751 C17.263986,17.4327001 17.3605465,17.3539928 17.7302335,17.2829098 C18.4003369,17.1540562 18.5284852,17.2351414 18.0429828,17.4808008 C17.8425033,17.582242 17.5672488,17.6028432 17.4313097,17.5265751 Z M21.8170752,11.0770667 C21.885229,11.0167023 22.0579108,11.0141792 22.2008208,11.0714598 C22.3587408,11.1347503 22.3101428,11.1777931 22.0769063,11.1812028 C21.86585,11.1843566 21.7489252,11.1374345 21.8170752,11.0770737 L21.8170752,11.0770667 Z M22.4374677,10.7067564 C22.5056177,10.6463955 22.6783032,10.6438724 22.8212096,10.7011496 C22.9791296,10.76444 22.9305316,10.8074864 22.697295,10.810896 C22.4862387,10.8140498 22.369314,10.7671243 22.4374677,10.7067599 L22.4374677,10.7067564 Z M26.0644276,9.5830575 C26.0610436,9.4336462 26.1113938,9.3508727 26.1761598,9.3991175 C26.2409258,9.447365 26.2436368,9.5696128 26.1821758,9.6707793 C26.1142664,9.7825742 26.0680786,9.7481707 26.0644201,9.5830575 L26.0644276,9.5830575 Z M33.3319399,4.4381637 C33.1546484,4.3304004 33.1319831,4.2598811 33.2751526,4.2614906 C33.4062036,4.2631637 33.5667669,4.3455255 33.6319465,4.4449633 C33.7790828,4.6694278 33.7098462,4.6678617 33.3319399,4.4381703 L33.3319399,4.4381637 Z" transform="translate(182.119135, 21.000000) rotate(0.000000) translate(-182.119135, -21.000000) "></path>
        </g>
    </g>
</svg>